<?xml version="1.0" standalone="no"?>
<!DOCTYPE svg PUBLIC "-//W3C//DTD SVG 20010904//EN"
 "http://www.w3.org/TR/2001/REC-SVG-20010904/DTD/svg10.dtd">
<svg version="1.0" xmlns="http://www.w3.org/2000/svg"
 width="400.000000pt" height="400.000000pt" viewBox="0 0 400.000000 400.000000"
 preserveAspectRatio="xMidYMid meet">
<metadata>
Created by potrace 1.11, written by Peter Selinger 2001-2013
</metadata>
<g transform="translate(0.000000,400.000000) scale(0.100000,-0.100000)"
fill="#000000" stroke="none">
<path d="M1103 3840 c-70 -42 -68 -22 -69 -649 -2 -624 -2 -616 64 -746 44
-85 54 -96 352 -349 14 -11 50 -41 80 -66 30 -25 68 -57 85 -72 102 -91 133
-109 188 -111 56 -2 93 22 118 76 18 40 19 70 16 622 l-2 580 -34 78 c-34 79
-94 165 -140 202 -14 11 -60 49 -101 85 -42 36 -100 85 -130 110 -29 25 -103
87 -164 139 -147 125 -194 143 -263 101z"/>
<path d="M2733 3838 c-33 -18 -181 -138 -277 -223 -6 -5 -40 -35 -76 -65 -36
-30 -67 -57 -70 -60 -3 -3 -21 -18 -40 -34 -82 -66 -140 -131 -174 -195 -70
-134 -66 -36 -66 -1561 0 -1214 2 -1382 15 -1421 21 -59 56 -84 121 -84 53 0
92 20 159 83 17 15 116 99 220 186 237 198 292 254 332 337 63 128 61 52 59
1570 -1 1265 -2 1387 -17 1414 -41 74 -112 94 -186 53z"/>
<path d="M570 3368 c-72 -20 -147 -94 -175 -171 -17 -47 -18 -124 -18 -1421 1
-754 3 -1383 6 -1397 9 -47 45 -104 87 -143 81 -73 56 -70 638 -72 287 0 522
2 521 5 0 3 -54 51 -120 106 -66 55 -138 116 -159 135 -22 19 -57 49 -77 65
-168 136 -227 204 -279 321 -51 115 -52 131 -50 730 l1 559 24 48 c25 50 81
104 119 113 28 8 28 25 1 50 -34 31 -89 132 -119 221 l-27 83 -1 368 c0 202
-1 377 -1 390 -1 22 -1 22 -168 21 -93 0 -184 -5 -203 -11z"/>
<path d="M3030 3273 c-5 -1422 -5 -1453 10 -1454 8 -1 83 -1 167 -1 189 0 235
12 304 84 82 85 80 64 77 714 -3 639 1 603 -79 683 -70 70 -91 76 -296 79
l-183 4 0 -109z"/>
<path d="M1115 2160 c-28 -11 -60 -50 -73 -86 -6 -20 -10 -221 -10 -565 0
-525 0 -535 22 -611 39 -135 77 -182 291 -367 17 -14 55 -46 85 -71 30 -25 68
-57 85 -71 106 -94 203 -170 231 -184 66 -31 140 -8 171 53 17 35 18 75 18
602 0 624 3 592 -66 720 -38 71 -69 104 -214 225 -66 55 -125 105 -131 110
-74 69 -254 215 -286 233 -42 22 -87 27 -123 12z"/>
<path d="M3030 1720 c-1 -3 -1 -172 -1 -377 0 -401 -4 -438 -55 -549 -35 -77
-93 -161 -136 -199 -19 -16 -138 -118 -265 -225 -127 -107 -229 -198 -227
-201 2 -3 236 -6 521 -5 l518 1 45 23 c57 30 106 76 133 127 22 40 22 44 22
630 l0 590 -27 46 c-40 68 -101 117 -168 136 -23 7 -360 10 -360 3z"/>
</g>
</svg>
